<svg
    width="29"
    height="25"
    viewBox="0 0 29 25"
    fill="none"
    xmlns="http://www.w3.org/2000/svg"
>
    <path
        d="M2.52444 11.2502H27.7398C28.0742 11.2502 28.3949 11.3819 28.6313 11.6163C28.8678 11.8506 29.0006 12.1685 29.0006 12.5C29.0006 12.8315 28.8678 13.1494 28.6313 13.3838C28.3949 13.6182 28.0742 13.7499 27.7398 13.7499H2.52444C2.19006 13.7499 1.86938 13.6182 1.63294 13.3838C1.3965 13.1494 1.26367 12.8315 1.26367 12.5C1.26367 12.1685 1.3965 11.8506 1.63294 11.6163C1.86938 11.3819 2.19006 11.2502 2.52444 11.2502Z"
        fill="#262626"
    />
    <path
        d="M3.04575 12.5L13.5026 22.8637C13.7393 23.0984 13.8723 23.4167 13.8723 23.7486C13.8723 24.0805 13.7393 24.3988 13.5026 24.6335C13.2658 24.8682 12.9447 25 12.6099 25C12.2752 25 11.9541 24.8682 11.7173 24.6335L0.370398 13.3849C0.252987 13.2688 0.159835 13.1309 0.0962757 12.979C0.0327166 12.8272 0 12.6644 0 12.5C0 12.3356 0.0327166 12.1728 0.0962757 12.021C0.159835 11.8691 0.252987 11.7312 0.370398 11.6151L11.7173 0.366532C11.9541 0.131845 12.2752 0 12.6099 0C12.9447 0 13.2658 0.131845 13.5026 0.366532C13.7393 0.601219 13.8723 0.919523 13.8723 1.25142C13.8723 1.58332 13.7393 1.90162 13.5026 2.13631L3.04575 12.5Z"
        fill="#262626"
    />
</svg>
